<svg width="48" height="48" viewBox="0 0 48 48" fill="none" xmlns="http://www.w3.org/2000/svg">
<rect x="1" y="6" width="46" height="36" rx="3" stroke="white" stroke-width="2"/>
<path d="M2 14H46" stroke="white" stroke-width="2" stroke-linecap="round" stroke-linejoin="round"/>
<circle cx="5" cy="10" r="1" fill="white"/>
<circle cx="9" cy="10" r="1" fill="white"/>
<circle cx="13" cy="10" r="1" fill="white"/>
<rect x="21.5" y="34.5" width="5" height="2" rx="1" fill="white" stroke="white"/>
<rect x="28.5" y="34.5" width="5" height="2" rx="1" fill="white" stroke="white"/>
<rect x="35.5" y="34.5" width="5" height="2" rx="1" fill="white" stroke="white"/>
<rect x="14.5" y="34.5" width="5" height="2" rx="1" fill="white" stroke="white"/>
<rect x="7.5" y="34.5" width="5" height="2" rx="1" fill="white" stroke="white"/>
<rect x="14.75" y="19.75" width="18.5" height="11.5" rx="1.25" stroke="white" stroke-width="1.5"/>
<path d="M18 25C18.5523 25 19 24.5523 19 24C19 23.4477 18.5523 23 18 23C17.4477 23 17 23.4477 17 24C17 24.5523 17.4477 25 18 25Z" stroke="white" stroke-width="1.5" stroke-linecap="round" stroke-linejoin="round"/>
<path d="M31 30.8L23.5811 24L15 30.5" stroke="white" stroke-width="1.5" stroke-linecap="round" stroke-linejoin="round"/>
<path d="M33 29L27.6786 24L26 25.3333" stroke="white" stroke-width="1.5" stroke-linecap="round" stroke-linejoin="round"/>
</svg>
