<svg width="48" height="48" viewBox="0 0 48 48" fill="none" xmlns="http://www.w3.org/2000/svg">
<rect x="1" y="6" width="46" height="36" rx="3" stroke="white" stroke-width="2"/>
<path d="M2 14H46" stroke="white" stroke-width="2" stroke-linecap="round" stroke-linejoin="round"/>
<circle cx="5" cy="10" r="1" fill="white"/>
<circle cx="9" cy="10" r="1" fill="white"/>
<circle cx="13" cy="10" r="1" fill="white"/>
<rect x="10.75" y="19.75" width="25.5" height="15.5" rx="1.25" stroke="white" stroke-width="1.5"/>
<path d="M16.5 26C17.3284 26 18 25.3284 18 24.5C18 23.6716 17.3284 23 16.5 23C15.6716 23 15 23.6716 15 24.5C15 25.3284 15.6716 26 16.5 26Z" stroke="white" stroke-width="1.5" stroke-linecap="round" stroke-linejoin="round"/>
<path d="M33 34.7429L23.5578 26L12 35" stroke="white" stroke-width="1.5" stroke-linecap="round" stroke-linejoin="round"/>
<path d="M36 32L29.1582 26L27 27.6" stroke="white" stroke-width="1.5" stroke-linecap="round" stroke-linejoin="round"/>
</svg>
