<svg width="48" height="48" viewBox="0 0 48 48" fill="none" xmlns="http://www.w3.org/2000/svg">
<rect x="1" y="6" width="46" height="36" rx="3" stroke="white" stroke-width="2"/>
<path d="M2 14H46" stroke="white" stroke-width="2" stroke-linecap="round" stroke-linejoin="round"/>
<circle cx="5" cy="10" r="1" fill="white"/>
<circle cx="9" cy="10" r="1" fill="white"/>
<circle cx="13" cy="10" r="1" fill="white"/>
<rect x="13.75" y="18.75" width="19.5" height="11.5" rx="1.25" stroke="white" stroke-width="1.5"/>
<path d="M34 37H14" stroke="white" stroke-width="1.5" stroke-linecap="round" stroke-linejoin="round"/>
<path d="M30 34H14" stroke="white" stroke-width="1.5" stroke-linecap="round" stroke-linejoin="round"/>
<path d="M18 23C18.5523 23 19 22.5523 19 22C19 21.4477 18.5523 21 18 21C17.4477 21 17 21.4477 17 22C17 22.5523 17.4477 23 18 23Z" stroke="white" stroke-width="1.5" stroke-linecap="round" stroke-linejoin="round"/>
<path d="M31 29.8L23.5811 23L14.5 30" stroke="white" stroke-width="1.5" stroke-linecap="round" stroke-linejoin="round"/>
<path d="M33 28L27.6786 23L26 24.3333" stroke="white" stroke-width="1.5" stroke-linecap="round" stroke-linejoin="round"/>
</svg>
