<svg width="48" height="48" viewBox="0 0 48 48" fill="none" xmlns="http://www.w3.org/2000/svg">
<rect x="1" y="6" width="46" height="36" rx="3" stroke="white" stroke-width="2"/>
<path d="M23.5 16.25C23.0858 16.25 22.75 16.5858 22.75 17C22.75 17.4142 23.0858 17.75 23.5 17.75V16.25ZM14.75 25C14.75 24.5858 14.4142 24.25 14 24.25C13.5858 24.25 13.25 24.5858 13.25 25H14.75ZM34.25 18V28H35.75V18H34.25ZM34 28.25H15V29.75H34V28.25ZM23.5 17.75H34V16.25H23.5V17.75ZM14.75 28V25H13.25V28H14.75ZM15 28.25C14.8619 28.25 14.75 28.1381 14.75 28H13.25C13.25 28.9665 14.0335 29.75 15 29.75V28.25ZM34.25 28C34.25 28.1381 34.1381 28.25 34 28.25V29.75C34.9665 29.75 35.75 28.9665 35.75 28H34.25ZM35.75 18C35.75 17.0335 34.9665 16.25 34 16.25V17.75C34.1381 17.75 34.25 17.8619 34.25 18H35.75Z" fill="white"/>
<path d="M26 36H15" stroke="white" stroke-width="1.5" stroke-linecap="round" stroke-linejoin="round"/>
<path d="M34 33H15" stroke="white" stroke-width="1.5" stroke-linecap="round" stroke-linejoin="round"/>
<path d="M31 21C31.5523 21 32 20.5523 32 20C32 19.4477 31.5523 19 31 19C30.4477 19 30 19.4477 30 20C30 20.5523 30.4477 21 31 21Z" stroke="white" stroke-width="1.5" stroke-linecap="round" stroke-linejoin="round"/>
<path d="M32 28.8L24.5811 22L15.5 29" stroke="white" stroke-width="1.5" stroke-linecap="round" stroke-linejoin="round"/>
<path d="M34.5 27.5L28.6786 22L27 23.3333" stroke="white" stroke-width="1.5" stroke-linecap="round" stroke-linejoin="round"/>
<path d="M31 36L30 36" stroke="white" stroke-width="1.5" stroke-linecap="round" stroke-linejoin="round"/>
<path d="M34 36L33 36" stroke="white" stroke-width="1.5" stroke-linecap="round" stroke-linejoin="round"/>
<mask id="path-10-inside-1" fill="white">
<path fill-rule="evenodd" clip-rule="evenodd" d="M8 16.5894C8 16.0372 8.44772 15.5894 9 15.5894H20.6182C21.1704 15.5894 21.6182 16.0372 21.6182 16.5894V18.375C20.9344 18.375 20.3802 18.9293 20.3802 19.613C20.3802 20.2968 20.9344 20.851 21.6182 20.851V22.327C21.6182 22.8793 21.1704 23.327 20.6182 23.327H9C8.44771 23.327 8 22.8793 8 22.327V20.851H8.00001C8.68375 20.851 9.23803 20.2967 9.23803 19.6129C9.23803 18.9292 8.68375 18.3749 8.00001 18.3749H8V16.5894Z"/>
</mask>
<path d="M21.6182 18.375L21.6182 19.875L23.1182 19.875V18.375H21.6182ZM21.6182 20.851H23.1182V19.3511L21.6182 19.351L21.6182 20.851ZM8 20.851V19.351H6.5V20.851H8ZM8 18.3749H6.5V19.8749H8V18.3749ZM9 14.0894C7.61929 14.0894 6.5 15.2087 6.5 16.5894H9.5C9.5 16.8656 9.27614 17.0894 9 17.0894V14.0894ZM20.6182 14.0894H9V17.0894H20.6182V14.0894ZM23.1182 16.5894C23.1182 15.2087 21.9989 14.0894 20.6182 14.0894V17.0894C20.342 17.0894 20.1182 16.8656 20.1182 16.5894H23.1182ZM23.1182 18.375V16.5894H20.1182V18.375H23.1182ZM21.8802 19.613C21.8802 19.7577 21.7629 19.875 21.6182 19.875L21.6181 16.875C20.106 16.875 18.8802 18.1009 18.8802 19.613H21.8802ZM21.6182 19.351C21.7629 19.351 21.8802 19.4683 21.8802 19.613H18.8802C18.8802 21.1252 20.106 22.351 21.6181 22.351L21.6182 19.351ZM23.1182 22.327V20.851H20.1182V22.327H23.1182ZM20.6182 24.827C21.9989 24.827 23.1182 23.7078 23.1182 22.327H20.1182C20.1182 22.0509 20.342 21.827 20.6182 21.827V24.827ZM9 24.827H20.6182V21.827H9V24.827ZM6.5 22.327C6.5 23.7078 7.61929 24.827 9 24.827V21.827C9.27614 21.827 9.5 22.0509 9.5 22.327H6.5ZM6.5 20.851V22.327H9.5V20.851H6.5ZM8.00001 19.351H8V22.351H8.00001V19.351ZM7.73803 19.6129C7.73803 19.4683 7.85532 19.351 8.00001 19.351V22.351C9.51218 22.351 10.738 21.1251 10.738 19.6129H7.73803ZM8.00001 19.8749C7.85532 19.8749 7.73803 19.7576 7.73803 19.6129H10.738C10.738 18.1008 9.51218 16.8749 8.00001 16.8749V19.8749ZM8 19.8749H8.00001V16.8749H8V19.8749ZM6.5 16.5894V18.3749H9.5V16.5894H6.5Z" fill="white" mask="url(#path-10-inside-1)"/>
<line x1="17.4042" y1="16.1664" x2="17.4042" y2="22.4993" stroke="white" stroke-linecap="round" stroke-dasharray="2 2"/>
<path d="M9.11816 16.3506L18.8201 12.4074C19.3604 12.1878 19.9732 12.4753 20.1497 13.0312L20.2942 13.4862C20.4507 13.9793 20.0962 14.4395 19.8585 14.899C19.8211 14.9714 19.795 15.0523 19.7849 15.1427C19.7385 15.5617 19.8224 15.7712 20.1733 16.1902" stroke="white" stroke-width="1.5"/>
</svg>
