<svg width="48" height="48" viewBox="0 0 48 48" fill="none" xmlns="http://www.w3.org/2000/svg">
<rect x="1" y="6" width="46" height="36" rx="3" stroke="white" stroke-width="2"/>
<path d="M2 14H46" stroke="white" stroke-width="2" stroke-linecap="round" stroke-linejoin="round"/>
<circle cx="5" cy="10" r="1" fill="white"/>
<circle cx="9" cy="10" r="1" fill="white"/>
<circle cx="13" cy="10" r="1" fill="white"/>
<rect x="12.5" y="24.5" width="23" height="6" rx="3" fill="white" stroke="white"/>
<path d="M20.008 26.176V26.624H18.82V27.38H19.772V27.812H18.82V29H18.256V26.176H20.008ZM21.4128 26.756C21.6288 26.756 21.8221 26.8013 21.9928 26.892C22.1661 26.9827 22.3021 27.1147 22.4008 27.288C22.4995 27.4587 22.5488 27.66 22.5488 27.892C22.5488 28.124 22.4995 28.3253 22.4008 28.496C22.3021 28.6667 22.1661 28.7987 21.9928 28.892C21.8221 28.9827 21.6288 29.028 21.4128 29.028C21.1968 29.028 21.0021 28.9827 20.8288 28.892C20.6581 28.7987 20.5235 28.6667 20.4248 28.496C20.3261 28.3253 20.2768 28.124 20.2768 27.892C20.2768 27.66 20.3261 27.4587 20.4248 27.288C20.5235 27.1147 20.6581 26.9827 20.8288 26.892C21.0021 26.8013 21.1968 26.756 21.4128 26.756ZM21.4128 27.244C21.2555 27.244 21.1221 27.3 21.0128 27.412C20.9035 27.5213 20.8488 27.6813 20.8488 27.892C20.8488 28.1027 20.9035 28.264 21.0128 28.376C21.1221 28.4853 21.2555 28.54 21.4128 28.54C21.5701 28.54 21.7035 28.4853 21.8128 28.376C21.9221 28.264 21.9768 28.1027 21.9768 27.892C21.9768 27.6813 21.9221 27.5213 21.8128 27.412C21.7035 27.3 21.5701 27.244 21.4128 27.244ZM23.5114 26.04V29H22.9474V26.04H23.5114ZM24.5856 26.04V29H24.0216V26.04H24.5856ZM26.1198 26.756C26.3358 26.756 26.5292 26.8013 26.6998 26.892C26.8732 26.9827 27.0092 27.1147 27.1078 27.288C27.2065 27.4587 27.2558 27.66 27.2558 27.892C27.2558 28.124 27.2065 28.3253 27.1078 28.496C27.0092 28.6667 26.8732 28.7987 26.6998 28.892C26.5292 28.9827 26.3358 29.028 26.1198 29.028C25.9038 29.028 25.7092 28.9827 25.5358 28.892C25.3652 28.7987 25.2305 28.6667 25.1318 28.496C25.0332 28.3253 24.9838 28.124 24.9838 27.892C24.9838 27.66 25.0332 27.4587 25.1318 27.288C25.2305 27.1147 25.3652 26.9827 25.5358 26.892C25.7092 26.8013 25.9038 26.756 26.1198 26.756ZM26.1198 27.244C25.9625 27.244 25.8292 27.3 25.7198 27.412C25.6105 27.5213 25.5558 27.6813 25.5558 27.892C25.5558 28.1027 25.6105 28.264 25.7198 28.376C25.8292 28.4853 25.9625 28.54 26.1198 28.54C26.2772 28.54 26.4105 28.4853 26.5198 28.376C26.6292 28.264 26.6838 28.1027 26.6838 27.892C26.6838 27.6813 26.6292 27.5213 26.5198 27.412C26.4105 27.3 26.2772 27.244 26.1198 27.244ZM30.8264 26.784L30.2304 29H29.6064L29.1304 27.388L28.6424 29H28.0184L27.4264 26.784H27.9904L28.3504 28.496L28.8424 26.784H29.4384L29.9344 28.496L30.2984 26.784H30.8264Z" fill="white"/>
</svg>
