<svg width="150" height="150" viewBox="0 0 150 150" fill="none" xmlns="http://www.w3.org/2000/svg">
<mask id="mask0" mask-type="alpha" maskUnits="userSpaceOnUse" x="0" y="0" width="150" height="150">
<rect width="150" height="150" fill="white"/>
</mask>
<g mask="url(#mask0)">
<g filter="url(#filter0_d)">
<rect x="-115" y="-13" width="702" height="169.141" fill="#FA1E4E"/>
</g>
<mask id="mask1" mask-type="alpha" maskUnits="userSpaceOnUse" x="-115" y="-13" width="702" height="170">
<rect x="-115" y="-13" width="702" height="169.141" fill="#FF922E"/>
</mask>
<g mask="url(#mask1)">
<path fill-rule="evenodd" clip-rule="evenodd" d="M25.0797 181.309C105.757 181.309 171.159 131.095 171.159 69.1543C171.159 7.21318 105.757 -43 25.0797 -43C-55.5979 -43 -121 7.21318 -121 69.1543C-121 95.5768 -109.099 119.865 -89.1879 139.032L-119.534 179.84H1.38091C9.09425 180.806 17.0106 181.309 25.0797 181.309Z" fill="#FDAE27"/>
<mask id="path-5-inside-1" fill="white">
<path fill-rule="evenodd" clip-rule="evenodd" d="M18.4684 163.439C91.6341 163.439 150.947 117.901 150.947 61.7275C150.947 5.5537 91.6341 -39.9841 18.4684 -39.9841C-54.6973 -39.9841 -114.01 5.5537 -114.01 61.7275C-114.01 85.69 -103.217 107.717 -85.1593 125.1L-112.68 162.108H-3.02123C3.97314 162.984 11.1515 163.439 18.4684 163.439Z"/>
</mask>
<path d="M-85.1593 125.1L-83.5544 126.293L-82.5036 124.88L-83.7723 123.659L-85.1593 125.1ZM-112.68 162.108L-114.285 160.914L-116.659 164.108H-112.68V162.108ZM-3.02123 162.108L-2.77271 160.123L-2.89649 160.108H-3.02123V162.108ZM148.947 61.7275C148.947 89.0637 134.52 113.948 110.927 132.062C87.3316 150.177 54.6493 161.439 18.4684 161.439V165.439C55.4533 165.439 89.0101 153.932 113.363 135.235C137.717 116.536 152.947 90.565 152.947 61.7275H148.947ZM18.4684 -37.9841C54.6493 -37.9841 87.3316 -26.7226 110.927 -8.60712C134.52 9.50672 148.947 34.3912 148.947 61.7275H152.947C152.947 32.8899 137.717 6.91863 113.363 -11.7799C89.0101 -30.4768 55.4533 -41.9841 18.4684 -41.9841V-37.9841ZM-112.01 61.7275C-112.01 34.3912 -97.5829 9.50672 -73.9898 -8.60712C-50.3947 -26.7226 -17.7124 -37.9841 18.4684 -37.9841V-41.9841C-18.5164 -41.9841 -52.0732 -30.4768 -76.4258 -11.7799C-100.78 6.91863 -116.01 32.8899 -116.01 61.7275H-112.01ZM-83.7723 123.659C-101.508 106.586 -112.01 85.0561 -112.01 61.7275H-116.01C-116.01 86.3239 -104.925 108.849 -86.5463 126.54L-83.7723 123.659ZM-111.075 163.301L-83.5544 126.293L-86.7642 123.906L-114.285 160.914L-111.075 163.301ZM-3.02123 160.108H-112.68V164.108H-3.02123V160.108ZM18.4684 161.439C11.2345 161.439 4.1391 160.989 -2.77271 160.123L-3.26976 164.092C3.80717 164.978 11.0685 165.439 18.4684 165.439V161.439Z" fill="#FDAE27" mask="url(#path-5-inside-1)"/>
<path fill-rule="evenodd" clip-rule="evenodd" d="M228.08 162.309C308.757 162.309 374.159 112.095 374.159 50.1543C374.159 -11.7868 308.757 -62 228.08 -62C147.402 -62 82 -11.7868 82 50.1543C82 76.577 93.9011 100.866 113.812 120.033L83.4665 160.84H204.38C212.094 161.806 220.01 162.309 228.08 162.309Z" fill="#FFC259"/>
<mask id="path-8-inside-2" fill="white">
<path fill-rule="evenodd" clip-rule="evenodd" d="M244.799 181.165C326.989 181.165 393.618 130.011 393.618 66.9082C393.618 3.80569 326.989 -47.349 244.799 -47.349C162.609 -47.349 95.9805 3.80569 95.9805 66.9082C95.9805 93.8262 108.105 118.57 128.389 138.097L97.4743 179.669H220.654C228.513 180.654 236.578 181.165 244.799 181.165Z"/>
</mask>
<path d="M128.389 138.097L129.994 139.29L131.045 137.877L129.776 136.656L128.389 138.097ZM97.4743 179.669L95.8694 178.476L93.4946 181.669H97.4743V179.669ZM220.654 179.669L220.903 177.685L220.779 177.669H220.654V179.669ZM391.618 66.9082C391.618 97.7088 375.362 125.73 348.812 146.114C322.26 166.5 285.492 179.165 244.799 179.165V183.165C286.296 183.165 323.938 170.254 351.248 149.287C378.559 128.318 395.618 99.2101 395.618 66.9082H391.618ZM244.799 -45.349C285.492 -45.349 322.26 -32.6832 348.812 -12.2975C375.362 8.08669 391.618 36.1076 391.618 66.9082H395.618C395.618 34.6063 378.559 5.4986 351.248 -15.4702C323.938 -36.4374 286.296 -49.349 244.799 -49.349V-45.349ZM97.9805 66.9082C97.9805 36.1076 114.236 8.08669 140.786 -12.2975C167.339 -32.6832 204.106 -45.349 244.799 -45.349V-49.349C203.302 -49.349 165.66 -36.4374 138.351 -15.4702C111.039 5.4986 93.9805 34.6063 93.9805 66.9082H97.9805ZM129.776 136.656C109.813 117.439 97.9805 93.1923 97.9805 66.9082H93.9805C93.9805 94.4601 106.396 119.702 127.002 139.538L129.776 136.656ZM99.0792 180.863L129.994 139.29L126.784 136.903L95.8694 178.476L99.0792 180.863ZM220.654 177.669H97.4743V181.669H220.654V177.669ZM244.799 179.165C236.661 179.165 228.679 178.659 220.903 177.685L220.406 181.654C228.347 182.648 236.495 183.165 244.799 183.165V179.165Z" fill="#FDAE27" mask="url(#path-8-inside-2)"/>
</g>
</g>
<rect x="31.6113" y="70.6993" width="29.1221" height="15.6706" rx="1" fill="#FDAE27" stroke="white" stroke-width="2"/>
<path d="M31.4531 84.5798L37.8728 77.1268C38.9672 75.8562 40.8907 75.7295 42.1424 76.8456L52.9022 86.4398" stroke="white" stroke-width="2"/>
<path d="M47.4346 81.3236L51.845 78.0726C52.9589 77.2515 54.49 77.2989 55.551 78.1874L60.5811 82.3994" stroke="white" stroke-width="2"/>
<rect x="27" y="65.1769" width="38.3435" height="39.9676" rx="3" fill="#FDAE27" stroke="white" stroke-width="2"/>
<line x1="32.1519" y1="100.207" x2="50.7643" y2="100.207" stroke="white" stroke-width="2" stroke-linecap="round" stroke-linejoin="round"/>
<line x1="32.1519" y1="90.333" x2="40.4581" y2="90.333" stroke="white" stroke-width="2" stroke-linecap="round" stroke-linejoin="round"/>
<line x1="32.1519" y1="95.2695" x2="61.0706" y2="95.2695" stroke="white" stroke-width="2" stroke-linecap="round" stroke-linejoin="round"/>
<rect x="32.1533" y="70.1145" width="29.1221" height="15.6706" rx="1" fill="#FDAE27" stroke="white" stroke-width="2"/>
<path d="M31.9961 83.9952L38.4157 76.5422C39.5102 75.2716 41.4337 75.1449 42.6853 76.261L53.4451 85.8552" stroke="white" stroke-width="2"/>
<path d="M47.9775 80.739L52.388 77.488C53.5019 76.6669 55.033 76.7143 56.094 77.6028L61.1241 81.8148" stroke="white" stroke-width="2"/>
<rect x="89.5664" y="70.6993" width="29.1221" height="15.6706" rx="1" fill="#FFC259" stroke="white" stroke-width="2"/>
<path d="M89.4077 84.5798L95.8273 77.1268C96.9218 75.8562 98.8453 75.7295 100.097 76.8456L110.857 86.4398" stroke="white" stroke-width="2"/>
<path d="M105.39 81.3236L109.801 78.0726C110.915 77.2515 112.446 77.2989 113.507 78.1874L118.537 82.3994" stroke="white" stroke-width="2"/>
<rect x="84.9546" y="65.1769" width="38.3435" height="39.9676" rx="3" fill="#FFC259" stroke="white" stroke-width="2"/>
<line x1="90.1069" y1="100.207" x2="108.719" y2="100.207" stroke="white" stroke-width="2" stroke-linecap="round" stroke-linejoin="round"/>
<line x1="90.1069" y1="90.333" x2="98.4132" y2="90.333" stroke="white" stroke-width="2" stroke-linecap="round" stroke-linejoin="round"/>
<line x1="90.1069" y1="95.2695" x2="119.026" y2="95.2695" stroke="white" stroke-width="2" stroke-linecap="round" stroke-linejoin="round"/>
<rect x="90.1069" y="70.1145" width="29.1221" height="15.6706" rx="1" fill="#FFC259" stroke="white" stroke-width="2"/>
<path d="M89.9502 83.9952L96.3698 76.5422C97.4643 75.2716 99.3878 75.1449 100.639 76.261L111.399 85.8552" stroke="white" stroke-width="2"/>
<path d="M105.93 80.739L110.341 77.488C111.455 76.6669 112.986 76.7143 114.047 77.6028L119.077 81.8148" stroke="white" stroke-width="2"/>
<rect x="59.7759" y="48.9067" width="30.7488" height="16.5942" rx="1" fill="#FDAE27" stroke="white" stroke-width="2"/>
<path d="M59.6611 63.5656L66.5204 55.6023C67.6149 54.3317 69.5384 54.205 70.79 55.321L82.2313 65.5229" stroke="white" stroke-width="2"/>
<path d="M76.478 60.1398L81.2182 56.6457C82.3321 55.8246 83.8632 55.872 84.9242 56.7605L90.3117 61.2718" stroke="white" stroke-width="2"/>
<rect x="54.9238" y="43.0968" width="40.4522" height="42.1612" rx="3" fill="#FDAE27" stroke="white" stroke-width="2"/>
<line x1="60.3447" y1="80.0623" x2="80.0346" y2="80.0623" stroke="white" stroke-width="2" stroke-linecap="round" stroke-linejoin="round"/>
<line x1="60.3447" y1="69.6721" x2="69.1897" y2="69.6721" stroke="white" stroke-width="2" stroke-linecap="round" stroke-linejoin="round"/>
<line x1="60.3447" y1="74.8666" x2="90.8795" y2="74.8666" stroke="white" stroke-width="2" stroke-linecap="round" stroke-linejoin="round"/>
<rect x="60.3457" y="48.2925" width="30.7488" height="16.5942" rx="1" fill="#FDAE27" stroke="white" stroke-width="2"/>
<path d="M60.2324 62.9509L67.0917 54.9875C68.1861 53.7169 70.1097 53.5902 71.3613 54.7063L82.8025 64.9082" stroke="white" stroke-width="2"/>
<path d="M77.0483 59.5238L81.7885 56.0298C82.9024 55.2086 84.4335 55.2561 85.4945 56.1445L90.882 60.6558" stroke="white" stroke-width="2"/>
<defs>
<filter id="filter0_d" x="-165" y="-53" width="802" height="269.141" filterUnits="userSpaceOnUse" color-interpolation-filters="sRGB">
<feFlood flood-opacity="0" result="BackgroundImageFix"/>
<feColorMatrix in="SourceAlpha" type="matrix" values="0 0 0 0 0 0 0 0 0 0 0 0 0 0 0 0 0 0 127 0"/>
<feOffset dy="10"/>
<feGaussianBlur stdDeviation="25"/>
<feColorMatrix type="matrix" values="0 0 0 0 0 0 0 0 0 0 0 0 0 0 0 0 0 0 0.1 0"/>
<feBlend mode="normal" in2="BackgroundImageFix" result="effect1_dropShadow"/>
<feBlend mode="normal" in="SourceGraphic" in2="effect1_dropShadow" result="shape"/>
</filter>
</defs>
</svg>
